<svg width="72" height="57" viewBox="0 0 72 57" fill="none" xmlns="http://www.w3.org/2000/svg">
<path d="M6.79987 18.0902L40.5035 1L66.7686 6.44356M6.79987 18.0902L37.2522 23.4072M6.79987 18.0902V31.0061M66.7686 6.44356L37.2522 23.4072M66.7686 6.44356V26.4455L61.6932 29.4308M37.2522 23.4072V43.4091M37.2522 43.4091L41.7719 40.7506M37.2522 43.4091L32.8112 42.6153M41.7719 40.7506L36.7447 49.7389C37.1676 51.68 37.0746 55.6382 33.3188 55.942C28.624 56.3218 27.1014 54.8026 27.3552 52.3973C27.4851 51.1661 28.7787 50.2334 30.1467 49.837L32.8112 42.6153M41.7719 40.7506L55.3618 33.155M32.8112 42.6153L26.0863 41.4132M55.3618 33.155C56.6264 34.6319 58.3942 37.4592 62.9621 36.9528C63.83 36.7283 64.5105 36.5201 65.0575 36.3198C67.1529 37.4592 68.2912 36.9528 69.5601 35.6869C70.8289 34.4209 70.702 28.8508 66.7686 30.8763C63.6219 32.4967 62.0739 30.5878 61.6932 29.4308M55.3618 33.155L61.6932 29.4308M26.0863 41.4132L20.1585 40.2443M26.0863 41.4132C26.9943 43.0888 28.5191 46.5548 27.3552 47.0134C26.2386 47.216 24.8598 47.6042 24.31 47.773C23.5064 48.0262 22.1783 48.0262 23.2949 46.0007C21.0617 44.279 20.0382 43.4935 19.1077 42.7762M19.1077 42.7762C18.4733 43.9577 16.4685 46.574 13.5248 47.5867C9.8451 48.8527 4.76971 49.3591 2.23202 44.9283C-0.305678 40.4975 1.47071 35.3071 4.0084 32.9018C4.68261 32.2628 5.69676 31.645 6.79987 31.0061M19.1077 42.7762C19.4223 42.1815 19.8289 41.2687 20.1585 40.2443M6.79987 31.0061C9.64096 29.3607 13.5887 28.1947 18.3464 31.5685C19.2346 30.2352 21.1378 30.7497 22.1529 32.9018C22.965 34.6235 21.5545 36.3198 20.7477 36.9528C20.7555 38.0181 20.4977 39.1903 20.1585 40.2443" stroke="#18181C" stroke-width="1.8722" stroke-linecap="round" stroke-linejoin="round"/>
<path d="M54.6199 22.9447L54.7868 27.8659C54.7916 28.0071 54.7166 28.1389 54.5927 28.2068L52.9202 29.1248C52.6769 29.2584 52.3779 29.09 52.3659 28.8127L52.1735 24.3598L51.5171 24.8537C51.2128 25.0827 50.8008 24.7642 50.9457 24.4121L52.8188 19.8599C52.9242 19.6037 53.2616 19.5467 53.4453 19.754L55.3801 21.9371C55.5319 22.1083 55.496 22.3744 55.3042 22.4993L54.6199 22.9447Z" fill="#18181C"/>
</svg>
