<svg width="266" height="213" viewBox="0 0 266 213" fill="none" xmlns="http://www.w3.org/2000/svg">
<style>
    path {
      stroke: #18181C;
      stroke-width: 8;
    }
    @media (prefers-color-scheme: dark) {
      path {
        stroke: white;
        stroke-width: 8;
      }
    }
  </style>
<path d="M25.6056 67.6645L151.158 4L249.001 24.2783M25.6056 67.6645L139.047 87.4713M25.6056 67.6645V115.779M249.001 24.2783L139.047 87.4713M249.001 24.2783V98.7894L230.094 109.91M139.047 87.4713V161.982M139.047 161.982L155.883 152.079M139.047 161.982L122.503 159.025M155.883 152.079L137.156 185.562C138.732 192.793 138.385 207.538 124.394 208.67C106.905 210.084 101.233 204.425 102.178 195.465C102.662 190.879 107.481 187.404 112.577 185.927L122.503 159.025M155.883 152.079L206.508 123.784M122.503 159.025L97.4516 154.547M206.508 123.784C211.219 129.286 217.805 139.818 234.821 137.931C238.054 137.095 240.589 136.319 242.627 135.573C250.433 139.818 254.673 137.931 259.4 133.215C264.126 128.5 263.654 107.75 249.001 115.295C237.279 121.331 231.512 114.22 230.094 109.91M206.508 123.784L230.094 109.91M97.4516 154.547L75.3693 150.193M97.4516 154.547C100.834 160.789 106.514 173.701 102.178 175.409C98.0188 176.164 92.8824 177.61 90.8342 178.239C87.8406 179.182 82.8933 179.182 87.0528 171.636C78.7338 165.223 74.921 162.297 71.4547 159.624M71.4547 159.624C69.0914 164.026 61.6231 173.772 50.6572 177.545C36.9497 182.261 18.0429 184.147 8.58951 167.641C-0.863906 151.136 5.75348 131.801 15.2069 122.84C17.7184 120.46 21.4963 118.159 25.6056 115.779M71.4547 159.624C72.6266 157.409 74.1412 154.009 75.3693 150.193M25.6056 115.779C36.1893 109.649 50.8954 105.306 68.6187 117.874C71.9274 112.907 79.0174 114.823 82.7988 122.84C85.8239 129.254 80.5695 135.573 77.5642 137.931C77.5931 141.9 76.6329 146.266 75.3693 150.193" stroke="#18181C" stroke-width="6.97432" stroke-linecap="round" stroke-linejoin="round"/>
<path d="M203.745 85.7485L204.366 104.081C204.384 104.607 204.105 105.098 203.643 105.351L197.413 108.77C196.507 109.268 195.393 108.641 195.348 107.608L194.631 91.0198L192.186 92.8599C191.053 93.7128 189.518 92.5263 190.057 91.2146L197.035 74.2568C197.428 73.3026 198.685 73.0903 199.369 73.8624L206.577 81.9949C207.142 82.6328 207.008 83.624 206.294 84.089L203.745 85.7485Z" fill="#18181C"/>
</svg>
