<svg width="280" height="74" viewBox="0 0 280 74" fill="none" xmlns="http://www.w3.org/2000/svg">
<path d="M123.172 23.6097C124.424 23.843 125.453 24.4687 126.259 25.4868C127.065 26.505 127.468 27.6716 127.468 28.9867C127.468 30.1745 127.171 31.2244 126.577 32.1365C126.004 33.0274 125.166 33.7273 124.063 34.2364C122.96 34.7455 121.656 35 120.15 35H110.573V12.792H119.736C121.242 12.792 122.536 13.0359 123.618 13.5238C124.721 14.0116 125.548 14.6904 126.1 15.5601C126.672 16.4297 126.959 17.416 126.959 18.519C126.959 19.8129 126.609 20.8946 125.909 21.7643C125.23 22.6339 124.318 23.2491 123.172 23.6097ZM115.027 21.9552H119.1C120.16 21.9552 120.977 21.7219 121.55 21.2552C122.123 20.7674 122.409 20.078 122.409 19.1871C122.409 18.2963 122.123 17.6069 121.55 17.1191C120.977 16.6312 120.16 16.3873 119.1 16.3873H115.027V21.9552ZM119.514 31.3729C120.595 31.3729 121.433 31.1184 122.027 30.6093C122.642 30.1002 122.95 29.3791 122.95 28.4458C122.95 27.4913 122.632 26.7489 121.995 26.2186C121.359 25.6671 120.5 25.3914 119.418 25.3914H115.027V31.3729H119.514ZM140.117 35.2863C138.42 35.2863 136.893 34.9152 135.536 34.1728C134.178 33.4092 133.107 32.338 132.322 30.9593C131.559 29.5806 131.177 27.9897 131.177 26.1868C131.177 24.3839 131.569 22.793 132.354 21.4143C133.16 20.0356 134.252 18.975 135.631 18.2327C137.01 17.4691 138.548 17.0873 140.245 17.0873C141.941 17.0873 143.479 17.4691 144.858 18.2327C146.237 18.975 147.318 20.0356 148.103 21.4143C148.909 22.793 149.312 24.3839 149.312 26.1868C149.312 27.9897 148.899 29.5806 148.071 30.9593C147.265 32.338 146.162 33.4092 144.763 34.1728C143.384 34.9152 141.835 35.2863 140.117 35.2863ZM140.117 31.4047C140.923 31.4047 141.676 31.2138 142.376 30.832C143.097 30.429 143.67 29.8351 144.094 29.0503C144.519 28.2655 144.731 27.311 144.731 26.1868C144.731 24.5111 144.285 23.2279 143.394 22.337C142.525 21.4249 141.454 20.9689 140.181 20.9689C138.908 20.9689 137.837 21.4249 136.967 22.337C136.119 23.2279 135.695 24.5111 135.695 26.1868C135.695 27.8625 136.108 29.1564 136.936 30.0684C137.784 30.9593 138.845 31.4047 140.117 31.4047ZM163.588 35L159.961 29.5275L156.748 35H151.975L157.734 26.155L151.912 17.3736H156.939L160.534 22.8142L163.779 17.3736H168.552L162.761 26.155L168.615 35H163.588ZM196.274 12.792V16.3873H190.356V35H185.902V16.3873H179.984V12.792H196.274ZM217.437 17.3736V35H212.951V32.7728C212.378 33.5364 211.625 34.141 210.692 34.5864C209.78 35.0106 208.783 35.2227 207.701 35.2227C206.322 35.2227 205.103 34.9364 204.042 34.3637C202.982 33.7698 202.144 32.9107 201.529 31.7865C200.935 30.6411 200.638 29.2836 200.638 27.714V17.3736H205.092V27.0777C205.092 28.4776 205.442 29.5594 206.142 30.323C206.842 31.0653 207.796 31.4365 209.005 31.4365C210.236 31.4365 211.201 31.0653 211.901 30.323C212.601 29.5594 212.951 28.4776 212.951 27.0777V17.3736H217.437ZM227.559 20.1098C228.131 19.1765 228.874 18.4448 229.786 17.9145C230.719 17.3842 231.78 17.1191 232.968 17.1191V21.7961H231.79C230.39 21.7961 229.33 22.1249 228.609 22.7824C227.909 23.44 227.559 24.5854 227.559 26.2186V35H223.104V17.3736H227.559V20.1098ZM242.427 21.0325V29.5594C242.427 30.1533 242.564 30.5881 242.84 30.8638C243.137 31.1184 243.625 31.2456 244.304 31.2456H246.372V35H243.572C239.818 35 237.94 33.1758 237.94 29.5275V21.0325H235.841V17.3736H237.94V13.0147H242.427V17.3736H246.372V21.0325H242.427ZM255.303 11.4557V35H250.848V11.4557H255.303ZM277.362 25.805C277.362 26.4413 277.319 27.014 277.234 27.5231H264.349C264.455 28.7958 264.9 29.7927 265.685 30.5139C266.47 31.235 267.435 31.5956 268.58 31.5956C270.235 31.5956 271.412 30.8851 272.112 29.4639H276.916C276.407 31.1608 275.431 32.5607 273.989 33.6637C272.547 34.7455 270.776 35.2863 268.676 35.2863C266.979 35.2863 265.452 34.9152 264.094 34.1728C262.758 33.4092 261.708 32.338 260.944 30.9593C260.202 29.5806 259.831 27.9897 259.831 26.1868C259.831 24.3626 260.202 22.7612 260.944 21.3825C261.687 20.0038 262.726 18.9432 264.062 18.2008C265.399 17.4584 266.936 17.0873 268.676 17.0873C270.351 17.0873 271.847 17.4478 273.162 18.169C274.498 18.8902 275.527 19.9189 276.248 21.2552C276.99 22.5703 277.362 24.0869 277.362 25.805ZM272.748 24.5323C272.727 23.3869 272.313 22.4749 271.507 21.7961C270.701 21.0961 269.715 20.7462 268.548 20.7462C267.446 20.7462 266.512 21.0855 265.749 21.7643C265.006 22.4218 264.55 23.3445 264.381 24.5323H272.748Z" fill="#EFEFEF"/>
<path d="M118.23 48.6616C118.01 48.4149 117.763 48.2007 117.491 48.019C117.218 47.8243 116.926 47.6685 116.614 47.5517C116.303 47.4219 115.965 47.3245 115.602 47.2596C115.238 47.1947 114.849 47.1622 114.433 47.1622C113.083 47.1622 112.097 47.4219 111.474 47.9411C110.864 48.4474 110.559 49.1354 110.559 50.0051C110.559 50.5893 110.695 51.0566 110.967 51.4071C111.253 51.7446 111.694 52.0172 112.292 52.2249C112.889 52.4326 113.661 52.6338 114.609 52.8285C115.608 53.0362 116.472 53.2829 117.198 53.5684C117.925 53.841 118.484 54.2175 118.873 54.6978C119.275 55.1781 119.477 55.8272 119.477 56.645C119.477 57.2551 119.36 57.7938 119.126 58.2611C118.892 58.7155 118.555 59.0919 118.114 59.3905C117.672 59.6891 117.147 59.9162 116.536 60.072C115.939 60.2278 115.271 60.3057 114.531 60.3057C113.817 60.3057 113.135 60.2278 112.486 60.072C111.837 59.9162 111.227 59.6891 110.656 59.3905C110.085 59.0919 109.553 58.709 109.059 58.2417L109.585 57.4433C109.871 57.7549 110.189 58.034 110.539 58.2806C110.903 58.5143 111.292 58.7155 111.707 58.8842C112.136 59.053 112.59 59.1893 113.07 59.2931C113.551 59.384 114.051 59.4294 114.57 59.4294C115.777 59.4294 116.718 59.2088 117.393 58.7674C118.081 58.3131 118.425 57.6445 118.425 56.7618C118.425 56.1517 118.269 55.6584 117.958 55.282C117.646 54.9055 117.166 54.6004 116.517 54.3668C115.868 54.1201 115.057 53.893 114.083 53.6853C113.109 53.4776 112.279 53.2439 111.591 52.9843C110.916 52.7247 110.403 52.3742 110.052 51.9328C109.715 51.4915 109.546 50.8943 109.546 50.1414C109.546 49.3106 109.747 48.6096 110.15 48.0385C110.565 47.4543 111.143 47.013 111.883 46.7144C112.623 46.4158 113.473 46.2665 114.433 46.2665C115.031 46.2665 115.582 46.3249 116.089 46.4418C116.608 46.5586 117.082 46.7403 117.51 46.987C117.951 47.2207 118.36 47.5192 118.737 47.8827L118.23 48.6616ZM126.246 59.702C126.181 59.728 126.051 59.7929 125.857 59.8968C125.662 60.0006 125.415 60.098 125.117 60.1888C124.818 60.2667 124.487 60.3057 124.124 60.3057C123.773 60.3057 123.442 60.2408 123.131 60.111C122.832 59.9682 122.592 59.7605 122.41 59.4879C122.228 59.2153 122.138 58.8842 122.138 58.4948V50.8619H120.716V50.0635H122.138V46.5976H123.111V50.0635H125.467V50.8619H123.111V58.2611C123.137 58.6376 123.273 58.9232 123.52 59.1179C123.767 59.2996 124.052 59.3905 124.377 59.3905C124.779 59.3905 125.13 59.3256 125.428 59.1958C125.727 59.053 125.902 58.9621 125.954 58.9232L126.246 59.702ZM128.063 55.9051V50.0635H129.037V55.7688C129.037 57.0279 129.244 57.9691 129.66 58.5922C130.088 59.2023 130.731 59.5073 131.587 59.5073C132.159 59.5073 132.704 59.384 133.223 59.1374C133.755 58.8777 134.223 58.5208 134.625 58.0664C135.027 57.5991 135.326 57.0604 135.521 56.4503V50.0635H136.494V58.9037C136.494 59.0595 136.527 59.1763 136.592 59.2542C136.67 59.3321 136.773 59.3775 136.903 59.3905V60.1888C136.773 60.2018 136.67 60.2083 136.592 60.2083C136.527 60.2083 136.468 60.2018 136.416 60.1888C136.196 60.1629 136.014 60.072 135.871 59.9162C135.728 59.7475 135.651 59.5463 135.638 59.3126L135.618 57.7938C135.177 58.5986 134.567 59.2347 133.788 59.702C133.022 60.1564 132.191 60.3836 131.295 60.3836C130.231 60.3836 129.426 60.0071 128.881 59.2542C128.336 58.5013 128.063 57.3849 128.063 55.9051ZM139.082 55.1457C139.082 54.198 139.284 53.3283 139.686 52.5364C140.088 51.7446 140.64 51.1085 141.341 50.6282C142.042 50.1349 142.84 49.8883 143.736 49.8883C144.619 49.8883 145.398 50.1219 146.073 50.5893C146.761 51.0566 147.3 51.6148 147.689 52.2638V45.9745H148.663V58.9037C148.663 59.0595 148.695 59.1763 148.76 59.2542C148.838 59.3321 148.942 59.3775 149.071 59.3905V60.1888C148.864 60.2148 148.708 60.2213 148.604 60.2083C148.37 60.1694 148.176 60.059 148.02 59.8773C147.864 59.6956 147.786 59.5008 147.786 59.2931V58.1638C147.371 58.8388 146.813 59.3775 146.112 59.7799C145.411 60.1824 144.69 60.3836 143.95 60.3836C143.249 60.3836 142.6 60.2408 142.003 59.9552C141.406 59.6566 140.887 59.2607 140.445 58.7674C140.017 58.2741 139.68 57.7159 139.433 57.0928C139.199 56.4697 139.082 55.8207 139.082 55.1457ZM147.689 56.7813V53.4516C147.507 52.9583 147.215 52.5105 146.813 52.1081C146.41 51.6927 145.956 51.3681 145.45 51.1345C144.943 50.8878 144.444 50.7645 143.95 50.7645C143.366 50.7645 142.834 50.8878 142.354 51.1345C141.886 51.3811 141.477 51.7121 141.127 52.1275C140.789 52.5429 140.53 53.0167 140.348 53.549C140.166 54.0682 140.075 54.6069 140.075 55.1651C140.075 55.7363 140.179 56.288 140.387 56.8202C140.595 57.3395 140.88 57.8068 141.244 58.2222C141.62 58.6246 142.049 58.9427 142.529 59.1763C143.022 59.397 143.554 59.5073 144.126 59.5073C144.476 59.5073 144.846 59.4359 145.236 59.2931C145.638 59.1503 146.014 58.9556 146.365 58.709C146.728 58.4494 147.027 58.1573 147.261 57.8328C147.507 57.4952 147.65 57.1448 147.689 56.7813ZM151.958 60.1888V50.0635H152.931V60.1888H151.958ZM151.958 47.7659V45.9745H152.931V47.7659H151.958ZM160.429 60.3836C159.715 60.3836 159.053 60.2473 158.443 59.9747C157.845 59.702 157.326 59.3256 156.885 58.8453C156.443 58.352 156.099 57.7873 155.853 57.1512C155.606 56.5152 155.483 55.8466 155.483 55.1457C155.483 54.4317 155.606 53.7632 155.853 53.1401C156.099 52.504 156.443 51.9458 156.885 51.4655C157.339 50.9722 157.865 50.5893 158.462 50.3167C159.072 50.0311 159.728 49.8883 160.429 49.8883C161.13 49.8883 161.779 50.0311 162.376 50.3167C162.973 50.5893 163.499 50.9722 163.953 51.4655C164.407 51.9458 164.758 52.504 165.005 53.1401C165.251 53.7632 165.374 54.4317 165.374 55.1457C165.374 55.8466 165.251 56.5152 165.005 57.1512C164.758 57.7873 164.407 58.352 163.953 58.8453C163.512 59.3256 162.986 59.702 162.376 59.9747C161.779 60.2473 161.13 60.3836 160.429 60.3836ZM156.456 55.1846C156.456 55.9765 156.632 56.7034 156.982 57.3654C157.346 58.0145 157.826 58.5337 158.423 58.9232C159.02 59.3126 159.682 59.5073 160.409 59.5073C161.136 59.5073 161.798 59.3126 162.395 58.9232C163.005 58.5208 163.486 57.9885 163.836 57.3265C164.2 56.6515 164.381 55.918 164.381 55.1262C164.381 54.3343 164.2 53.6074 163.836 52.9453C163.486 52.2833 163.005 51.7576 162.395 51.3681C161.798 50.9657 161.143 50.7645 160.429 50.7645C159.702 50.7645 159.04 50.9657 158.443 51.3681C157.845 51.7706 157.365 52.3028 157.002 52.9648C156.638 53.6269 156.456 54.3668 156.456 55.1846ZM171.095 60.3836C170.29 60.3836 169.544 60.2473 168.856 59.9747C168.168 59.702 167.564 59.2867 167.045 58.7285L167.493 58.0469C168.051 58.5792 168.616 58.9686 169.187 59.2153C169.758 59.4489 170.381 59.5657 171.056 59.5657C171.926 59.5657 172.627 59.384 173.159 59.0205C173.704 58.6571 173.977 58.1508 173.977 57.5017C173.977 57.0604 173.847 56.7229 173.588 56.4892C173.341 56.2426 172.977 56.0478 172.497 55.9051C172.03 55.7493 171.459 55.587 170.784 55.4183C170.096 55.2365 169.512 55.0483 169.031 54.8536C168.564 54.6589 168.213 54.4057 167.98 54.0942C167.746 53.7826 167.629 53.3607 167.629 52.8285C167.629 52.1665 167.792 51.6213 168.116 51.1929C168.454 50.7515 168.901 50.427 169.46 50.2193C170.031 49.9986 170.66 49.8883 171.348 49.8883C172.14 49.8883 172.828 50.0181 173.412 50.2777C174.009 50.5373 174.464 50.8813 174.775 51.3097L174.25 51.9328C173.925 51.5174 173.503 51.2124 172.984 51.0176C172.465 50.8099 171.894 50.7061 171.27 50.7061C170.803 50.7061 170.362 50.771 169.946 50.9008C169.531 51.0306 169.193 51.2448 168.934 51.5434C168.687 51.829 168.564 52.2184 168.564 52.7117C168.564 53.1011 168.655 53.4062 168.836 53.6269C169.031 53.8475 169.317 54.0293 169.693 54.1721C170.07 54.3019 170.537 54.4447 171.095 54.6004C171.887 54.7952 172.569 54.9964 173.14 55.2041C173.711 55.4118 174.152 55.6844 174.464 56.0219C174.775 56.3464 174.931 56.8072 174.931 57.4044C174.931 58.326 174.581 59.053 173.88 59.5852C173.179 60.1174 172.251 60.3836 171.095 60.3836Z" fill="#EFEFEF"/>
<path d="M9.33588 24.0503L51.9654 2.43396L85.1865 9.31918M9.33588 24.0503L47.8531 30.7754M9.33588 24.0503V40.3868M85.1865 9.31918L47.8531 30.7754M85.1865 9.31918V34.6183L78.767 38.3943M47.8531 30.7754V56.0746M47.8531 56.0746L53.5698 52.712M47.8531 56.0746L42.236 55.0705M53.5698 52.712L47.2112 64.0807C47.7461 66.5359 47.6284 71.5423 42.878 71.9266C36.9399 72.407 35.014 70.4855 35.335 67.4432C35.4993 65.8859 37.1355 64.7062 38.8658 64.2048L42.236 55.0705M53.5698 52.712L70.7588 43.1048M42.236 55.0705L33.7301 53.55M70.7588 43.1048C72.3583 44.9729 74.5943 48.5489 80.3719 47.9084C81.4696 47.6245 82.3305 47.3611 83.0223 47.1078C85.6727 48.5489 87.1124 47.9084 88.7173 46.3072C90.3222 44.706 90.1617 37.6606 85.1865 40.2226C81.2064 42.2721 79.2485 39.8577 78.767 38.3943M70.7588 43.1048L78.767 38.3943M33.7301 53.55L26.2324 52.0716M33.7301 53.55C34.8785 55.6694 36.8072 60.0533 35.335 60.6335C33.9227 60.8896 32.1787 61.3807 31.4833 61.5942C30.4669 61.9144 28.7871 61.9144 30.1994 59.3525C27.3748 57.1748 26.0802 56.1813 24.9033 55.274M24.9033 55.274C24.1008 56.7685 21.5651 60.0776 17.8418 61.3586C13.1876 62.9598 6.76807 63.6003 3.5583 57.996C0.348531 52.3918 2.59537 45.8268 5.80514 42.7845C6.6579 41.9763 7.94063 41.1948 9.33588 40.3868M24.9033 55.274C25.3012 54.5218 25.8154 53.3673 26.2324 52.0716M9.33588 40.3868C12.9294 38.3057 17.9227 36.8309 23.9403 41.0981C25.0638 39.4117 27.4711 40.0625 28.755 42.7845C29.7821 44.9622 27.9981 47.1078 26.9777 47.9084C26.9875 49.2558 26.6615 50.7384 26.2324 52.0716" stroke="#EFEFEF" stroke-width="2.36803" stroke-linecap="round" stroke-linejoin="round"/>
<path d="M69.8204 30.1904L70.0315 36.4149C70.0376 36.5934 69.9427 36.7602 69.7861 36.8461L67.6706 38.0072C67.3628 38.1761 66.9847 37.9632 66.9695 37.6125L66.7262 31.9802L65.8959 32.605C65.511 32.8946 64.9899 32.4917 65.1731 32.0463L67.5424 26.2886C67.6757 25.9646 68.1024 25.8925 68.3348 26.1547L70.782 28.9159C70.9739 29.1325 70.9285 29.4691 70.6859 29.627L69.8204 30.1904Z" fill="#EFEFEF"/>
</svg>
